<?xml version="1.0" encoding="UTF-8" standalone="no"?>
<!-- Created with Inkscape (http://www.inkscape.org/) -->

<svg
   xmlns:dc="http://purl.org/dc/elements/1.1/"
   xmlns:cc="http://creativecommons.org/ns#"
   xmlns:rdf="http://www.w3.org/1999/02/22-rdf-syntax-ns#"
   xmlns:svg="http://www.w3.org/2000/svg"
   xmlns="http://www.w3.org/2000/svg"
   version="1.1"
   width="48"
   height="48"
   id="svg2">
  <defs
     id="defs4" />
  <metadata
     id="metadata7">
    <rdf:RDF>
      <cc:Work
         rdf:about="">
        <dc:format>image/svg+xml</dc:format>
        <dc:type
           rdf:resource="http://purl.org/dc/dcmitype/StillImage" />
        <dc:title></dc:title>
      </cc:Work>
    </rdf:RDF>
  </metadata>
  <g
     transform="translate(0,-1004.3622)"
     id="layer1">
    <rect
       width="31"
       height="12"
       rx="2"
       ry="2.0000174"
       x="-33"
       y="1013.3622"
       transform="scale(-1,1)"
       id="rect3864"
       style="fill:#ff0000;fill-opacity:1;stroke:none" />
    <path
       d="m 14.96875,1023.3632 c -0.823532,0 -1.577246,0.315 -2.125,0.8125 -0.01102,0.01 -0.0204,0.021 -0.03125,0.031 l -11.90625,11.125 0,0.031 c -0.55053961,0.5153 -0.90625,1.2137 -0.90625,2 0,0.7863 0.35571039,1.4847 0.90625,2 l 0,0.031 11.90625,11.125 0.03125,0.031 c 0.547754,0.4975 1.301468,0.8125 2.125,0.8125 0.823532,0 1.545996,-0.315 2.09375,-0.8125 0.02217,-0.02 0.04099,-0.042 0.0625,-0.062 0.531275,-0.5126 0.875,-1.1981 0.875,-1.9687 l 0,-11.1563 0,-11.1562 c 0,-0.011 1.28e-4,-0.02 0,-0.031 -0.009,-0.7578 -0.351162,-1.432 -0.875,-1.9375 -0.01083,-0.01 -0.02026,-0.021 -0.03125,-0.031 l 0,-0.031 -0.03125,0 c -0.547754,-0.4975 -1.270218,-0.8125 -2.09375,-0.8125 z"
       id="path3833"
       style="fill:#000000;fill-opacity:1;stroke:#ffffff;stroke-width:3;stroke-linecap:round;stroke-linejoin:round;stroke-miterlimit:4;stroke-opacity:1;stroke-dasharray:none" />
    <rect
       width="31"
       height="12"
       rx="2"
       ry="2.0000174"
       x="15"
       y="1031.3632"
       id="rect3789"
       style="fill:#ff0000;fill-opacity:1;stroke:none" />
    <path
       d="m 33.031307,1005.3632 c 0.823532,0 1.577246,0.315 2.125,0.8125 0.01102,0.01 0.0204,0.021 0.03125,0.031 l 11.906251,11.125 0,0.031 c 0.550539,0.5153 0.90625,1.2137 0.90625,2 0,0.7863 -0.355711,1.4847 -0.90625,2 l 0,0.031 -11.906251,11.125 -0.03125,0.031 c -0.547754,0.4975 -1.301468,0.8125 -2.125,0.8125 -0.823532,0 -1.545996,-0.315 -2.09375,-0.8125 -0.02217,-0.02 -0.04099,-0.042 -0.0625,-0.062 -0.531275,-0.5126 -0.875,-1.1981 -0.875,-1.9687 l 0,-11.1563 0,-11.1562 c 0,-0.011 -1.28e-4,-0.02 0,-0.031 0.009,-0.7578 0.351162,-1.432 0.875,-1.9375 0.01083,-0.01 0.02026,-0.021 0.03125,-0.031 l 0,-0.031 0.03125,0 c 0.547754,-0.4975 1.270218,-0.8125 2.09375,-0.8125 z"
       id="path3866"
       style="fill:#000000;fill-opacity:1;stroke:#ffffff;stroke-width:3;stroke-linecap:round;stroke-linejoin:round;stroke-miterlimit:4;stroke-opacity:1;stroke-dasharray:none" />
    <path
       d="m 155.79146,969.45873 c -0.4376,0.0359 -0.93125,0.4 -1.21875,0.6875 l -14.53125,14.53125 c -0.575,0.57501 -0.575,1.4875 0,2.0625 l 14.53125,14.53122 c 0.57501,0.575 2.03125,1.4375 2.03125,-0.5625 -0.0114,-4.3706 -0.0267,-6.35632 -0.0312,-8.99997 l 13.54725,0 -0.016,-5 c -0.0876,-1.77321 0.77786,-1.98943 1.2,-2 0.42214,-0.0106 1.09488,0.10929 2.15,1.3 l 5.7,5.7 7.45,0 c 0.554,1e-5 1,-0.44599 1,-1 l 0,-10 c 1e-5,-0.55399 -0.446,-1 -1,-1 l -30.03125,0 c 0.005,-2.64364 0.0199,-4.62935 0.0312,-9 0,-1 -0.3749,-1.28593 -0.8125,-1.25 z"
       id="rect2989"
       style="fill:#000000;fill-opacity:1;stroke:none" />
    <path
       d="m 171.41646,1017.7058 c 0.4376,-0.036 0.93125,-0.4 1.21875,-0.6875 l 14.53125,-14.5313 c 0.57501,-0.575 0.57501,-1.4874 0,-2.0625 l -14.53125,-14.53117 c -0.575,-0.575 -2.03125,-1.4375 -2.03125,0.5625 0.0114,4.3706 0.0267,6.3564 0.0312,9 l -13.54725,0 0.016,4.99997 c 0.0876,1.7732 -0.77786,1.9894 -1.2,2 -0.42214,0.011 -1.09487,-0.1093 -2.15,-1.3 l -5.7,-5.69997 -7.45,0 c -0.554,0 -1,0.446 -1,1 l 0,9.99997 c -1e-5,0.554 0.446,1 1,1 l 30.03125,0 c -0.005,2.6436 -0.0199,4.6294 -0.0312,9 0,1 0.3749,1.2859 0.8125,1.25 z"
       id="path3767"
       style="fill:#000000;fill-opacity:1;stroke:none" />
    <g
       transform="matrix(1.0140845,0,0,0.94915254,-1.2676059,53.697385)"
       id="g3783"
       style="fill:#ff0000;fill-opacity:1;stroke:none">
      <path
         d="m -729.77817,732.81873 16.61701,0 2.96985,2.96985 -0.84853,2.12132 -8.34386,8.34385 -8.30851,8.30851 -2.15667,0.88389 -2.96985,-2.96985 0,-16.61701 z"
         transform="matrix(0.70710677,-0.70710679,0.70710677,0.70710679,0,0)"
         id="rect3773"
         style="fill:#ff0000;fill-opacity:1;stroke:none" />
      <path
         d="m -210.89108,-36.158417 a 6.9306931,7.9207921 0 1 1 -13.86139,0 6.9306931,7.9207921 0 1 1 13.86139,0 z"
         transform="matrix(0.43285714,0,0,0.37875,98.535712,1050.0572)"
         id="path3769"
         style="fill:#ff0000;fill-opacity:1;stroke:none" />
      <path
         d="m -210.89108,-36.158417 a 6.9306931,7.9207921 0 1 1 -13.86139,0 6.9306931,7.9207921 0 1 1 13.86139,0 z"
         transform="matrix(0.43285714,0,0,0.37875,110.28571,1038.3072)"
         id="path3777"
         style="fill:#ff0000;fill-opacity:1;stroke:none" />
      <path
         d="m -210.89108,-36.158417 a 6.9306931,7.9207921 0 1 1 -13.86139,0 6.9306931,7.9207921 0 1 1 13.86139,0 z"
         transform="matrix(0.43285714,0,0,0.37875,110.28571,1061.8072)"
         id="path3779"
         style="fill:#ff0000;fill-opacity:1;stroke:none" />
    </g>
    <g
       transform="matrix(-1.0140845,0,0,0.94915254,49.267606,35.696386)"
       id="g3854"
       style="fill:#ff0000;fill-opacity:1;stroke:none">
      <path
         d="m -729.77817,732.81873 16.61701,0 2.96985,2.96985 -0.84853,2.12132 -8.34386,8.34385 -8.30851,8.30851 -2.15667,0.88389 -2.96985,-2.96985 0,-16.61701 z"
         transform="matrix(0.70710677,-0.70710679,0.70710677,0.70710679,0,0)"
         id="path3856"
         style="fill:#ff0000;fill-opacity:1;stroke:none" />
      <path
         d="m -210.89108,-36.158417 a 6.9306931,7.9207921 0 1 1 -13.86139,0 6.9306931,7.9207921 0 1 1 13.86139,0 z"
         transform="matrix(0.43285714,0,0,0.37875,98.535712,1050.0572)"
         id="path3858"
         style="fill:#ff0000;fill-opacity:1;stroke:none" />
      <path
         d="m -210.89108,-36.158417 a 6.9306931,7.9207921 0 1 1 -13.86139,0 6.9306931,7.9207921 0 1 1 13.86139,0 z"
         transform="matrix(0.43285714,0,0,0.37875,110.28571,1038.3072)"
         id="path3860"
         style="fill:#ff0000;fill-opacity:1;stroke:none" />
      <path
         d="m -210.89108,-36.158417 a 6.9306931,7.9207921 0 1 1 -13.86139,0 6.9306931,7.9207921 0 1 1 13.86139,0 z"
         transform="matrix(0.43285714,0,0,0.37875,110.28571,1061.8072)"
         id="path3862"
         style="fill:#ff0000;fill-opacity:1;stroke:none" />
    </g>
    <rect
       width="11.256747"
       height="12"
       rx="0.72624177"
       ry="2.0000174"
       x="-33"
       y="1013.3622"
       transform="scale(-1,1)"
       id="rect3868"
       style="fill:#ff0000;fill-opacity:1;stroke:none" />
  </g>
</svg>
